<svg xmlns="http://www.w3.org/2000/svg" viewBox="0 0 86 86"><defs><style>.cls-1{fill:#fff;}.cls-2{fill:#040000;}</style></defs><title>chat-location</title><g id="图层_2" data-name="图层 2"><g id="图层_1-2" data-name="图层 1"><rect class="cls-1" width="86" height="86" rx="8" ry="8"/><path class="cls-2" d="M43,17c10.27,0,18.62,9,18.62,20.16a20.91,20.91,0,0,1-6.4,15.21C52.36,55.07,46,63.58,43,67.64c-3.1-4.1-9.78-12.82-12.67-15.73a21.05,21.05,0,0,1-5.93-14.75C24.38,26,32.73,17,43,17m0-2c-11.39,0-20.62,9.92-20.62,22.16a22.9,22.9,0,0,0,6.51,16.16C32.58,57,43,71,43,71S53,57.25,56.59,53.83a22.85,22.85,0,0,0,7-16.67C63.62,24.92,54.39,15,43,15Z"/><path class="cls-2" d="M43,27.32a8,8,0,1,1-8,8,8,8,0,0,1,8-8m0-2a10,10,0,1,0,10,10,10,10,0,0,0-10-10Z"/></g></g></svg>