<svg xmlns="http://www.w3.org/2000/svg" viewBox="0 0 86 86"><defs><style>.cls-1{fill:#fff;}.cls-2{fill:none;stroke:#000;stroke-miterlimit:10;stroke-width:2px;}</style></defs><title>chat-file</title><g id="图层_2" data-name="图层 2"><g id="图层_1-2" data-name="图层 1"><rect class="cls-1" width="86" height="86" rx="8" ry="8"/><path class="cls-2" d="M15,20.75V65.67a.67.67,0,0,0,.68.66H70.32a.67.67,0,0,0,.68-.66V29a.67.67,0,0,0-.68-.66H46.57a.69.69,0,0,1-.48-.19l-8.44-8.23a.69.69,0,0,0-.49-.19l-21.49.42A.67.67,0,0,0,15,20.75Z"/><line class="cls-2" x1="15.45" y1="43" x2="70.55" y2="43"/></g></g></svg>