<svg xmlns="http://www.w3.org/2000/svg" viewBox="0 0 86 86"><defs><style>.cls-1{fill:#fff;}.cls-2{fill:#060001;}.cls-3,.cls-4{fill:none;stroke-miterlimit:10;stroke-width:2px;}.cls-3{stroke:#090104;}.cls-4{stroke:#2d2f2f;}</style></defs><title>chat-look</title><g id="图层_2" data-name="图层 2"><g id="图层_1-2" data-name="图层 1"><rect class="cls-1" width="86" height="86" rx="8" ry="8"/><path class="cls-2" d="M43,17A26,26,0,1,1,17,43,26,26,0,0,1,43,17m0-2A28,28,0,1,0,71,43,28,28,0,0,0,43,15Z"/><path class="cls-3" d="M43,63.23A14.75,14.75,0,0,0,57.75,48.48H28.25A14.75,14.75,0,0,0,43,63.23Z"/><path class="cls-4" d="M26.66,33.8s5.74-14,13.09,0"/><path class="cls-4" d="M46.25,33.8s5.74-14,13.09,0"/></g></g></svg>