<svg xmlns="http://www.w3.org/2000/svg" viewBox="0 0 67 48"><defs><style>.cls-1,.cls-2,.cls-3{fill:none;}.cls-2{stroke:#4e94d0;}.cls-2,.cls-3{stroke-linecap:round;stroke-miterlimit:10;stroke-width:2px;}.cls-3{stroke:#f1964e;}.cls-4{fill:#f1964e;}</style></defs><title>data</title><g id="图层_2" data-name="图层 2"><g id="图层_1-2" data-name="图层 1"><rect class="cls-1" width="67" height="48"/><path class="cls-2" d="M21.57,19.36h17A1.42,1.42,0,0,1,40,20.78V28.7m0,.9v1.06"/><path class="cls-3" d="M25,27.88h6.4M25,24.17H36.09"/><polygon class="cls-4" points="21.94 17.12 37.78 17.12 37.78 18.91 21.57 18.91 21.94 17.12"/><path class="cls-2" d="M25,26.88h6.4M25,23.17H36.09"/><rect class="cls-1" x="21.19" y="12.51" width="18.35" height="20.77"/><path class="cls-2" d="M40,31.65v2.42a1.42,1.42,0,0,1-1.42,1.42H22.51a1.42,1.42,0,0,1-1.42-1.42V17.93a1.42,1.42,0,0,1,1.42-1.42H35.93"/><path class="cls-2" d="M31.42,16.51H37a1.42,1.42,0,0,1,1.42,1.42v1.43H21.11V17.72"/></g></g></svg>