<svg xmlns="http://www.w3.org/2000/svg" viewBox="0 0 26 24.27"><title>like-normal</title><g id="图层_2" data-name="图层 2"><g id="图层_1-2" data-name="图层 1"><path d="M18.76,2C22.38,2,24,4.82,24,7.62,24,12.8,17.37,19,13.74,21.82A54,54,0,0,1,8.21,17.4C4.21,13.7,2,10.23,2,7.62,2,4.83,3.73,2,7,2c1,0,2.92,1.14,4.56,2.78L13,6.18l1.41-1.41.41-.41C16,3.2,17.15,2,18.76,2m0-2C16.06,0,14.38,2,13,3.36,11.62,2,9.13,0,7,0,2.82,0,0,3.41,0,7.62c0,7.89,13.79,16.65,13.79,16.65S26,15.7,26,7.62C26,3.41,23.28,0,18.76,0Z"/></g></g></svg>