<svg xmlns="http://www.w3.org/2000/svg" viewBox="0 0 20 27.16"><defs><style>.cls-1{fill:#040000;}</style></defs><title>location</title><g id="图层_2" data-name="图层 2"><g id="图层_1-2" data-name="图层 1"><path class="cls-1" d="M10,2c4.41,0,8,3.92,8,8.75a9.11,9.11,0,0,1-2.78,6.63A68.28,68.28,0,0,0,10,23.82c-1.67-2.19-4.19-5.41-5.4-6.64A9.17,9.17,0,0,1,2,10.75C2,5.92,5.59,2,10,2m0-2C4.48,0,0,4.81,0,10.75a11.11,11.11,0,0,0,3.16,7.84C4.94,20.39,10,27.16,10,27.16s4.83-6.67,6.59-8.33A11.08,11.08,0,0,0,20,10.75C20,4.81,15.52,0,10,0Z"/><path class="cls-1" d="M10,7A2.86,2.86,0,1,1,7.14,9.86,2.86,2.86,0,0,1,10,7m0-2a4.86,4.86,0,1,0,4.86,4.86A4.86,4.86,0,0,0,10,5Z"/></g></g></svg>