<svg xmlns="http://www.w3.org/2000/svg" viewBox="0 0 67 48"><defs><style>.cls-1,.cls-4{fill:none;}.cls-2{fill:#f1964e;}.cls-3{fill:#4e94d0;}.cls-4{stroke:#4e94d0;stroke-linecap:round;stroke-miterlimit:10;stroke-width:2px;}</style></defs><title>my-friends</title><g id="图层_2" data-name="图层 2"><g id="图层_1-2" data-name="图层 1"><rect class="cls-1" width="67" height="48"/><path class="cls-2" d="M26.52,15.23s1.63-.64,1.15.91,2.34,8.13,3.59,8.68c0,0-6.38,3.71-6.73,10.48,0,0-5,1.65-4.28-3.63s3.76-6.18,5.47-6.35C25.72,25.32,19,16.23,26.52,15.23Z"/><path class="cls-3" d="M32.88,14.46c2.11,0,3.83,2.09,3.83,4.66S35,23.77,32.88,23.77s-3.83-2.09-3.83-4.66,1.72-4.66,3.83-4.66m0-2c-3.22,0-5.83,3-5.83,6.66s2.61,6.66,5.83,6.66,5.83-3,5.83-6.66-2.61-6.66-5.83-6.66Z"/><path class="cls-4" d="M24.13,35.46c0-5.93,4.29-10.37,9-10.08"/><path class="cls-4" d="M19.34,33.62c0-5.93,3.59-8.83,7.18-8.81"/><path class="cls-4" d="M26.52,14.59c-6.34.7-4.17,10.57,0,10.23"/><path class="cls-4" d="M41.72,35.46c.11-1.1,0-5-2.78-7.58"/></g></g></svg>