<svg xmlns="http://www.w3.org/2000/svg" viewBox="0 0 67 48"><defs><style>.cls-1,.cls-3,.cls-4{fill:none;}.cls-2{fill:#4e94d0;}.cls-3{stroke:#4e94d0;}.cls-3,.cls-4{stroke-linecap:round;stroke-miterlimit:10;stroke-width:2px;}.cls-4{stroke:#f1964e;}</style></defs><title>my-storys</title><g id="图层_2" data-name="图层 2"><g id="图层_1-2" data-name="图层 1"><rect class="cls-1" width="67" height="48"/><path class="cls-2" d="M24.9,14.5c2.09,0,3.79,2.09,3.79,4.66S27,23.81,24.9,23.81s-3.79-2.09-3.79-4.66,1.7-4.66,3.79-4.66m0-2c-3.2,0-5.79,3-5.79,6.66s2.59,6.66,5.79,6.66,5.79-3,5.79-6.66S28.1,12.5,24.9,12.5Z"/><path class="cls-3" d="M16.21,35.5c0-5.93,4.26-10.5,8.9-10.2"/><path class="cls-3" d="M33.67,35.5c.11-1.1,0-5-2.76-7.58"/><path class="cls-3" d="M30.19,13H42.87a2,2,0,0,1,2,2V32.94a2,2,0,0,1-2,2H38.19"/><line class="cls-4" x1="32.59" y1="18.21" x2="41.93" y2="18.21"/><line class="cls-4" x1="32.59" y1="22.71" x2="41.93" y2="22.71"/><line class="cls-4" x1="35.05" y1="27.28" x2="41.93" y2="27.28"/><line class="cls-3" x1="32.59" y1="17.21" x2="41.93" y2="17.21"/><line class="cls-3" x1="32.59" y1="21.71" x2="41.93" y2="21.71"/><line class="cls-3" x1="35.05" y1="26.28" x2="41.93" y2="26.28"/></g></g></svg>