<svg xmlns="http://www.w3.org/2000/svg" viewBox="0 0 67 48"><defs><style>.cls-1,.cls-2,.cls-3,.cls-4{fill:none;}.cls-2{stroke:#4e94d0;}.cls-2,.cls-3,.cls-4{stroke-linecap:round;stroke-miterlimit:10;}.cls-2,.cls-4{stroke-width:2px;}.cls-3,.cls-4{stroke:#000;}.cls-3{stroke-width:0.5px;}.cls-5{fill:#f1964e;}.cls-6{fill:#4e94d0;}</style></defs><title>my-travel</title><g id="图层_2" data-name="图层 2"><g id="图层_1-2" data-name="图层 1"><rect class="cls-1" width="67" height="48"/><line class="cls-2" x1="30.57" y1="9" x2="30.57" y2="13.72"/><line class="cls-2" x1="25.02" y1="9" x2="36.11" y2="9"/><line class="cls-3" x1="25.44" y1="17.88" x2="25.44" y2="32.75"/><line class="cls-3" x1="25.44" y1="17.88" x2="25.44" y2="32.75"/><line class="cls-3" x1="28.86" y1="17.88" x2="28.86" y2="32.75"/><line class="cls-3" x1="32.27" y1="17.88" x2="32.27" y2="32.75"/><line class="cls-3" x1="35.69" y1="17.88" x2="35.69" y2="32.75"/><line class="cls-4" x1="26.77" y1="37.72" x2="26.77" y2="39"/><line class="cls-4" x1="34.36" y1="37.72" x2="34.36" y2="39"/><path class="cls-5" d="M30.07,14.53s-5,.92-6.66,3.25c-1.38,1.94-2.67,7.42-2.75,13.33s-.59-13.61-.59-13.61-.29-4.22,4-3.39S30.07,14.53,30.07,14.53Z"/><path class="cls-5" d="M30,14.53s-5,.92-6.66,3.25c-1.38,1.94-1.46,7.52-2.75,13.33C20.53,37,20,17.51,20,17.51s-.29-4.22,4-3.39S30,14.53,30,14.53Z"/><path class="cls-6" d="M39.07,15.72v20h-17v-20h17m0-2h-17a2,2,0,0,0-2,2v20a2,2,0,0,0,2,2h17a2,2,0,0,0,2-2v-20a2,2,0,0,0-2-2Z"/></g></g></svg>