<svg xmlns="http://www.w3.org/2000/svg" viewBox="0 0 67 48"><defs><style>.cls-1,.cls-2{fill:none;}.cls-2{stroke:#4e94d0;stroke-linecap:round;stroke-miterlimit:10;stroke-width:2px;}.cls-3{fill:#4e94d0;}.cls-4{fill:#f1964e;}</style></defs><title>news</title><g id="图层_2" data-name="图层 2"><g id="图层_1-2" data-name="图层 1"><rect class="cls-1" width="67" height="48"/><line class="cls-2" x1="19.04" y1="30.3" x2="42.04" y2="30.3"/><path class="cls-3" d="M33,33.87H28.08a.48.48,0,0,0-.46.29,1.42,1.42,0,0,0-.07.45c0,1.14,1.34,2.06,3,2.06s3-.92,3-2.06a1.42,1.42,0,0,0-.07-.45.48.48,0,0,0-.46-.29Z"/><path class="cls-3" d="M30.54,11.34a1.9,1.9,0,0,0-2,1.77,2,2,0,0,0,4,0,1.9,1.9,0,0,0-2-1.77Z"/><path class="cls-4" d="M28.83,15.6a14.37,14.37,0,0,0-3.92,7c-.55,2.61-1.33,5.87-2.29,6.44-.84,1.27-.84-6.79-.84-6.79S24.21,14.61,28.83,15.6Z"/><path class="cls-2" d="M21.79,30.3V22.24c0-4.07,3.92-7.36,8.75-7.36h0c4.83,0,8.75,3.3,8.75,7.36V30.3"/></g></g></svg>