<?xml version="1.0" encoding="UTF-8"?>
<svg width="14px" height="14px" viewBox="0 0 14 14" version="1.1" xmlns="http://www.w3.org/2000/svg" xmlns:xlink="http://www.w3.org/1999/xlink">
    <!-- Generator: Sketch 50.2 (55047) - http://www.bohemiancoding.com/sketch -->
    <title>Cancel</title>
    <desc>Created with Sketch.</desc>
    <defs></defs>
    <g id="Page-1" stroke="none" stroke-width="1" fill="none" fill-rule="evenodd">
        <g id="搜索景点" transform="translate(-16.000000, -40.000000)" fill="#9B9B9B">
            <path d="M23.64495,46.5842899 L28.9478825,41.2813574 C29.2356892,40.9935507 29.2411441,40.513222 28.9482509,40.2203288 C28.6533157,39.9253936 28.180319,39.9276005 27.8872223,40.2206972 L22.5842899,45.5236297 L17.2813574,40.2206972 C16.9935507,39.9328905 16.513222,39.9274356 16.2203288,40.2203288 C15.9253936,40.515264 15.9276005,40.9882607 16.2206972,41.2813574 L21.5236297,46.5842899 L16.2206972,51.8872223 C15.9328905,52.175029 15.9274356,52.6553577 16.2203288,52.9482509 C16.515264,53.2431861 16.9882607,53.2409792 17.2813574,52.9478825 L22.5842899,47.64495 L27.8872223,52.9478825 C28.175029,53.2356892 28.6553577,53.2411441 28.9482509,52.9482509 C29.2431861,52.6533157 29.2409792,52.180319 28.9478825,51.8872223 L23.64495,46.5842899 L23.64495,46.5842899 Z" id="Cancel"></path>
        </g>
    </g>
</svg>