<svg xmlns="http://www.w3.org/2000/svg" viewBox="0 0 67 48"><defs><style>.cls-1,.cls-2{fill:none;}.cls-2{stroke:#4e94d0;stroke-linecap:round;stroke-miterlimit:10;stroke-width:2px;}.cls-3{fill:#f1964e;}.cls-4{fill:#4e94d0;}</style></defs><title>setting</title><g id="图层_2" data-name="图层 2"><g id="图层_1-2" data-name="图层 1"><rect class="cls-1" width="67" height="48"/><line class="cls-2" x1="26.69" y1="15.67" x2="41.27" y2="15.67"/><line class="cls-2" x1="19.81" y1="23.97" x2="34.4" y2="23.97"/><line class="cls-2" x1="26.69" y1="32.51" x2="41.27" y2="32.51"/><ellipse class="cls-3" cx="38.97" cy="24.05" rx="1.81" ry="2.06"/><ellipse class="cls-3" cx="22.23" cy="15.69" rx="1.81" ry="2.06"/><ellipse class="cls-3" cx="22.23" cy="32.25" rx="1.81" ry="2.06"/><path class="cls-4" d="M22.23,14.5A1.18,1.18,0,1,1,21,15.69a1.19,1.19,0,0,1,1.18-1.18m0-2a3.18,3.18,0,1,0,3.18,3.18,3.18,3.18,0,0,0-3.18-3.18Z"/><path class="cls-4" d="M38.86,22.79A1.18,1.18,0,1,1,37.67,24a1.19,1.19,0,0,1,1.18-1.18m0-2A3.18,3.18,0,1,0,42,24a3.18,3.18,0,0,0-3.18-3.18Z"/><path class="cls-4" d="M22.23,31.13A1.18,1.18,0,1,1,21,32.31a1.19,1.19,0,0,1,1.18-1.18m0-2a3.18,3.18,0,1,0,3.18,3.18,3.18,3.18,0,0,0-3.18-3.18Z"/></g></g></svg>